<?xml version="1.0" standalone="no"?>
<!DOCTYPE svg>
<svg version="1.0" xmlns="http://www.w3.org/2000/svg"
 width="1024.000000pt" height="1024.000000pt" viewBox="0 0 1024.000000 1024.000000"
 preserveAspectRatio="xMidYMid meet">

<g transform="translate(0.000000,1024.000000) scale(0.100000,-0.100000)"
fill="#000000" stroke="none">
<path d="M6536 9471 c-11 -12 -21 -45 -25 -80 -8 -67 -21 -88 -68 -108 -37
-15 -206 -18 -266 -4 -51 12 -101 -5 -138 -46 -24 -28 -29 -42 -29 -86 1 -65
10 -80 88 -152 34 -31 62 -66 62 -76 0 -18 1 -18 53 1 128 48 308 76 392 61
46 -8 43 -8 -42 -9 -145 -1 -233 -22 -391 -91 l-73 -32 -94 58 c-52 32 -142
91 -200 130 -119 82 -199 125 -265 143 -25 7 -57 17 -72 22 -15 6 -92 10 -170
10 -118 -1 -154 -5 -208 -22 -75 -25 -196 -89 -287 -151 -23 -16 -45 -29 -49
-29 -3 0 -52 -33 -108 -72 -115 -83 -226 -151 -226 -138 0 4 6 10 14 13 8 3
66 44 130 92 95 70 114 89 107 103 -4 9 -11 48 -15 87 -7 71 -22 100 -83 161
-42 42 -147 77 -192 64 -14 -5 -44 -13 -66 -20 -113 -32 -185 -106 -185 -189
0 -33 28 -122 44 -137 6 -6 45 -17 86 -23 41 -7 79 -16 84 -22 15 -14 -9 -11
-96 9 -48 12 -97 17 -133 14 -32 -3 -75 1 -98 8 -150 46 -216 74 -252 107 -11
10 -31 26 -45 36 -13 9 -19 17 -12 17 9 0 6 12 -8 39 -23 46 -39 59 -50 41 -6
-9 -9 -8 -14 6 -3 11 -27 30 -53 44 -27 13 -73 41 -104 60 -30 20 -74 42 -97
49 -38 13 -44 13 -63 -5 -48 -43 -54 -85 -68 -449 -4 -121 -11 -228 -16 -237
-12 -30 -66 -22 -131 20 -32 21 -75 45 -94 54 -196 92 -425 78 -595 -35 -65
-43 -77 -54 -145 -137 -72 -87 -68 -78 -131 -286 -5 -17 -9 -45 -9 -64 0 -18
-5 -61 -12 -97 -9 -50 -9 -78 1 -131 17 -88 35 -152 55 -190 23 -45 20 -58
-22 -105 -64 -71 -102 -167 -102 -259 0 -61 5 -81 40 -155 22 -47 40 -94 40
-103 0 -10 -19 -40 -43 -66 -56 -63 -120 -172 -145 -249 -29 -89 -47 -182 -62
-325 -13 -126 -4 -171 88 -425 l57 -160 -2 -185 c-1 -102 -6 -340 -11 -530 -8
-286 -7 -354 5 -400 49 -191 199 -364 417 -480 53 -29 123 -74 154 -101 31
-27 100 -70 152 -95 52 -26 114 -56 138 -68 95 -47 342 -246 368 -296 13 -27
19 -73 25 -195 9 -185 17 -220 61 -262 45 -43 162 -101 227 -113 93 -17 189
-13 239 11 77 38 226 195 280 296 23 43 42 53 97 53 77 0 101 -14 131 -79 62
-131 122 -165 209 -121 48 25 77 25 97 3 9 -10 39 -65 68 -123 29 -57 75 -137
102 -178 43 -63 62 -81 152 -140 57 -37 118 -75 135 -84 25 -14 31 -23 31 -51
0 -18 -5 -38 -12 -45 -9 -9 -8 -12 7 -12 10 0 15 -3 11 -7 -4 -4 -133 -10
-287 -13 l-279 -5 -34 -35 c-19 -19 -55 -71 -79 -115 -34 -62 -54 -86 -89
-108 -68 -42 -82 -32 -184 128 -15 25 -16 28 -2 17 29 -23 -2 46 -38 85 -35
37 -70 48 -38 11 17 -19 16 -19 -14 3 -32 23 -41 24 -176 24 -188 0 -189 -1
-220 -138 -10 -44 -49 -77 -91 -77 -38 0 -89 21 -102 43 -4 7 -31 30 -60 50
-70 51 -187 91 -323 111 -31 5 -668 11 -759 7 -27 -1 -44 -11 -78 -46 -31 -33
-50 -45 -71 -45 -16 0 -32 3 -36 7 -4 5 -11 8 -14 8 -4 0 -27 14 -51 30 -43
29 -48 30 -187 33 -191 5 -213 -6 -228 -113 -4 -27 -9 -273 -12 -546 -5 -488
-4 -497 17 -553 11 -32 35 -72 53 -89 39 -39 157 -102 208 -111 45 -8 53 -22
61 -104 11 -109 60 -184 162 -247 111 -69 180 -78 540 -67 160 5 331 8 380 8
50 0 120 3 157 8 l67 9 88 -84 c132 -125 203 -172 308 -204 l90 -28 1595 -1
1595 0 75 28 c93 35 174 89 265 176 39 37 81 74 95 81 20 11 126 14 570 14
592 1 592 1 677 58 74 49 97 104 101 242 2 65 -1 125 -8 148 -18 60 -9 63 124
42 143 -22 203 -17 252 20 63 48 66 65 74 410 10 426 -10 798 -46 852 -29 45
-76 56 -244 57 -180 1 -203 -6 -246 -79 -14 -25 -32 -45 -41 -45 -12 0 -12 3
1 22 21 30 20 41 -3 26 -15 -9 -24 -7 -47 9 -69 47 -105 56 -239 61 l-130 4
-61 -41 c-34 -23 -66 -41 -72 -41 -7 0 -37 12 -69 26 -114 51 -180 66 -298 66
-116 0 -205 -21 -334 -78 -61 -28 -79 -30 -62 -10 10 12 4 20 -32 44 -58 41
-145 56 -267 47 -112 -7 -169 -30 -200 -81 -24 -37 -34 -44 -26 -16 6 22 -62
67 -125 81 -27 7 -248 11 -571 11 -345 0 -528 3 -528 10 0 6 17 10 38 11 34 0
35 1 12 10 -29 12 -40 26 -40 55 0 24 28 51 91 87 66 38 247 258 286 347 8 19
23 75 34 124 28 131 57 166 94 110 21 -32 80 -58 116 -50 15 3 55 23 90 46 71
46 88 49 115 19 17 -19 19 -36 17 -186 -3 -193 8 -234 83 -303 60 -55 96 -55
206 5 46 25 134 70 195 101 62 30 133 74 158 97 44 40 47 46 59 124 7 46 19
90 26 99 27 32 154 84 242 99 21 3 73 24 115 46 99 50 323 124 355 116 25 -7
88 -102 88 -134 0 -11 -7 -28 -15 -39 -8 -10 -15 -22 -15 -26 0 -9 162 113
205 154 17 15 92 74 167 129 l136 102 -32 31 c-18 17 -45 55 -60 84 -35 70
-122 160 -162 168 -28 5 -31 10 -32 46 -3 56 19 90 88 139 194 139 245 184
302 269 90 134 88 112 88 787 l0 583 46 116 c25 64 50 131 55 148 14 47 39
242 39 305 0 124 -80 324 -196 494 -61 88 -66 118 -29 157 35 37 78 182 71
240 -8 58 -53 148 -115 230 -28 36 -50 72 -51 80 0 8 21 57 48 108 l47 94 -1
152 c-1 207 -22 276 -124 411 -40 53 -95 115 -121 138 -59 52 -191 133 -251
154 -90 33 -269 12 -383 -45 -27 -13 -88 -61 -135 -106 -115 -111 -180 -155
-164 -111 4 8 2 15 -2 15 -5 0 -43 32 -84 70 -98 92 -254 195 -360 238 -170
69 -175 71 -154 72 20 0 50 23 130 97 30 27 34 37 34 82 0 64 -26 95 -125 148
-40 22 -74 49 -82 63 -6 14 -22 46 -33 73 -12 26 -26 47 -31 47 -5 0 -9 -47
-9 -105 l0 -105 90 0 c87 0 90 -1 96 -24 10 -40 -2 -46 -96 -46 l-89 0 -3 -62
-3 -63 -35 0 -35 0 0 60 0 60 -120 -3 c-132 -4 -163 6 -151 45 8 27 42 33 172
33 l104 0 0 115 c0 63 -2 115 -3 115 -2 0 -12 -9 -21 -19z m-3094 -241 c26
-16 53 -30 58 -30 23 0 26 -56 19 -390 -4 -195 -8 -419 -8 -497 l-1 -142 -32
-17 c-18 -9 -45 -28 -60 -42 -15 -14 -30 -24 -32 -21 -3 2 -8 266 -12 587 -6
472 -5 582 6 582 7 0 35 -13 62 -30z m2812 4 c30 -11 16 -30 -41 -57 -79 -36
-101 -41 -118 -27 -18 15 -20 61 -3 78 12 12 134 17 162 6z m-1800 -28 c44
-18 53 -47 29 -89 -22 -37 -33 -38 -167 -18 -96 13 -112 28 -78 70 15 19 90
40 175 50 4 1 23 -5 41 -13z m1016 -112 c66 -20 118 -50 289 -164 115 -76 212
-143 215 -148 3 -6 -9 -25 -27 -44 -18 -18 -42 -46 -53 -61 -19 -28 -19 -28
-58 -12 -21 9 -99 57 -174 107 -74 50 -165 105 -201 122 -59 27 -76 31 -157
31 -87 0 -94 -2 -177 -43 -48 -24 -124 -71 -168 -105 -78 -60 -206 -153 -491
-358 -111 -80 -301 -210 -598 -409 -30 -20 -188 -125 -350 -233 -162 -107
-385 -261 -495 -341 -179 -130 -360 -257 -569 -399 -121 -83 -161 -131 -190
-227 -30 -102 -14 -193 51 -284 25 -35 82 -78 250 -190 227 -149 422 -274 678
-431 83 -51 242 -152 355 -225 113 -73 277 -178 365 -233 88 -55 198 -126 245
-157 47 -32 148 -97 225 -145 77 -49 185 -118 240 -155 168 -113 386 -250 436
-275 113 -58 285 -53 416 11 62 30 209 124 393 251 69 48 455 300 760 497 151
98 331 215 400 261 69 45 186 121 260 170 74 48 153 100 175 116 22 15 76 51
121 78 44 28 138 89 210 135 404 266 437 294 474 400 23 64 25 103 9 178 -26
119 -39 134 -442 476 -67 57 -168 146 -223 198 -111 102 -147 125 -166 106
-22 -22 -45 -12 -72 28 -30 46 -32 60 -10 101 14 29 17 30 37 16 12 -9 63 -41
112 -72 50 -32 134 -87 188 -124 55 -36 130 -86 168 -111 143 -94 387 -277
452 -340 159 -151 215 -336 173 -572 -17 -94 -61 -179 -124 -240 -70 -68 -583
-417 -812 -553 -36 -21 -110 -69 -166 -106 -55 -37 -149 -97 -210 -134 -60
-36 -152 -93 -204 -126 -52 -33 -102 -63 -110 -66 -8 -4 -26 -15 -39 -25 -29
-22 -42 -23 -35 -3 4 9 14 14 23 13 9 -2 15 3 14 9 -2 7 1 12 6 10 9 -2 33 16
98 71 16 13 58 44 96 68 37 24 67 46 67 49 0 10 -63 -26 -150 -85 -47 -32
-125 -82 -175 -111 -49 -29 -157 -96 -240 -149 -82 -53 -189 -121 -238 -151
-48 -30 -185 -119 -305 -197 -549 -363 -678 -410 -899 -327 -102 39 -319 164
-579 334 -71 47 -150 98 -175 113 -43 26 -91 55 -376 234 -79 49 -189 118
-245 153 -57 35 -152 96 -213 136 -112 74 -258 165 -285 179 -8 4 10 -15 40
-43 30 -28 61 -51 68 -51 6 0 12 -4 12 -10 0 -5 6 -10 14 -10 14 0 97 -42 119
-60 80 -66 126 -99 206 -142 51 -29 96 -58 98 -65 3 -7 9 -13 14 -13 4 0 19
-10 32 -22 12 -13 36 -33 52 -46 19 -15 21 -18 5 -8 -14 9 -47 28 -74 42 -28
15 -93 54 -145 89 -148 96 -389 248 -461 290 -36 21 -94 57 -130 80 -70 46
-425 269 -477 301 -17 10 -73 47 -125 81 -342 229 -392 273 -458 405 -58 117
-70 205 -46 320 39 186 137 316 338 451 62 41 145 101 183 132 39 30 116 86
172 123 57 37 149 100 205 140 57 41 186 130 288 198 456 307 559 377 615 418
33 24 90 61 127 84 37 22 122 80 190 129 68 49 184 131 258 181 74 51 225 158
335 238 110 80 230 163 267 185 152 92 319 114 478 63z m-1807 -116 c12 -6 41
-16 65 -22 l44 -11 -1 -200 c-1 -110 -4 -248 -7 -306 l-7 -106 -34 -18 c-19
-11 -43 -30 -54 -44 -11 -13 -22 -21 -25 -18 -9 9 -18 737 -10 737 4 0 17 -5
29 -12z m3044 -14 c-3 -3 -12 -4 -19 -1 -8 3 -5 6 6 6 11 1 17 -2 13 -5z
m-2741 -100 c30 -4 57 -10 59 -15 3 -4 1 -83 -4 -176 -9 -159 -11 -169 -33
-183 -12 -8 -39 -30 -59 -47 l-36 -33 -6 83 c-4 45 -7 151 -7 236 0 136 2 152
16 147 9 -3 40 -9 70 -12z m270 -34 l35 0 -3 -77 -3 -77 -55 -32 c-30 -18 -58
-33 -62 -34 -9 0 -11 224 -2 233 3 3 17 2 31 -4 13 -5 40 -9 59 -9z m2506 -9
c296 -76 494 -265 569 -546 28 -102 30 -270 6 -365 -31 -120 -102 -244 -199
-345 -110 -115 -185 -166 -307 -207 -90 -31 -105 -33 -231 -32 -168 0 -252 23
-393 108 -180 107 -315 293 -358 491 -21 100 -17 266 10 365 59 222 228 414
433 494 149 58 332 72 470 37z m-1410 -51 c73 -21 126 -112 113 -198 -22 -156
-188 -211 -271 -90 -23 32 -29 54 -32 108 -5 84 12 120 76 161 51 32 60 34
114 19z m2524 -82 c-3 -13 -6 -45 -6 -71 l0 -48 -62 -28 c-107 -48 -188 -139
-188 -209 0 -20 -5 -22 -55 -22 -62 0 -95 22 -95 63 0 39 59 144 108 195 73
75 201 141 276 142 25 0 28 -3 22 -22z m164 -5 c59 -21 166 -90 212 -138 40
-41 94 -142 104 -191 6 -30 4 -31 -33 -37 -21 -4 -59 -7 -84 -7 -43 0 -47 2
-52 28 -19 89 -122 193 -207 207 -22 4 -42 10 -44 13 -2 4 -7 40 -11 80 l-7
73 38 -6 c22 -3 59 -13 84 -22z m-5135 -8 c73 -19 150 -64 221 -128 100 -90
139 -195 132 -353 -3 -81 -8 -100 -40 -165 -38 -77 -142 -190 -203 -221 -73
-37 -188 -61 -296 -62 -101 0 -111 2 -174 33 -210 104 -326 370 -254 584 50
149 176 273 319 311 73 20 221 20 295 1z m5032 -266 c71 -27 102 -87 88 -176
-10 -68 -57 -113 -118 -113 -50 0 -104 30 -125 70 -8 15 -12 49 -9 87 4 74 27
112 78 130 43 15 52 15 86 2z m-2839 -86 c36 -17 65 -40 88 -72 57 -77 64
-117 64 -367 0 -254 10 -227 -99 -264 -106 -35 -237 -106 -264 -142 -51 -69
-68 -115 -77 -224 -5 -58 -12 -109 -15 -114 -7 -12 -793 -12 -872 -1 -60 8
-63 4 -63 -86 0 -41 4 -53 18 -57 9 -3 217 -4 461 -3 l444 2 7 -25 c4 -14 15
-60 25 -102 27 -125 103 -206 233 -249 66 -22 156 -72 179 -100 8 -10 13 -82
14 -239 2 -212 1 -227 -19 -267 -40 -78 -133 -125 -247 -126 -92 0 -171 24
-222 68 -52 44 -105 150 -129 257 -13 56 -21 75 -29 68 -6 -5 -42 -21 -79 -35
-110 -41 -225 -29 -289 33 -50 47 -77 103 -107 220 -11 41 -11 42 -55 42 -195
0 -311 100 -390 333 -83 248 -6 554 168 674 59 39 99 51 194 55 l73 3 0 81 c0
159 56 268 162 314 74 33 178 32 273 -3 51 -18 72 -22 77 -14 4 7 8 45 8 85 0
77 16 122 67 190 70 93 273 126 401 65z m630 22 c1 -1 -4 -29 -12 -61 -8 -32
-17 -80 -21 -106 l-6 -48 -45 0 -44 0 0 -180 0 -180 78 0 78 0 33 -81 c20 -49
55 -108 90 -152 32 -40 73 -97 92 -127 43 -66 46 -69 133 -105 38 -16 83 -40
100 -54 41 -35 72 -51 94 -51 11 0 57 -10 103 -21 70 -18 102 -20 194 -15 61
3 136 12 167 20 32 9 71 13 87 10 43 -9 82 2 75 21 -11 28 5 15 23 -17 21 -42
30 -228 14 -313 -16 -87 -61 -174 -120 -234 -68 -69 -123 -93 -235 -100 l-88
-6 -19 -72 c-21 -85 -30 -104 -75 -160 -44 -54 -125 -93 -194 -93 -50 0 -93
15 -163 59 l-34 21 -16 -102 c-25 -149 -77 -226 -187 -277 -65 -29 -198 -40
-268 -22 -83 23 -151 110 -172 221 -11 59 -13 257 -3 338 6 52 8 54 67 94 34
22 92 54 130 70 87 35 168 96 202 149 18 30 29 66 37 129 l11 88 140 7 c78 3
249 5 381 3 l240 -3 3 -62 c4 -81 -11 -92 -123 -95 l-80 -1 65 -6 c84 -8 55
-21 -46 -21 l-74 0 -1 -102 c-2 -120 1 -221 5 -226 2 -1 20 5 41 15 55 26 95
110 95 198 0 89 16 105 105 105 75 0 128 18 145 51 7 12 16 74 21 138 5 64 11
129 14 145 l5 28 -133 -7 c-72 -3 -184 -11 -247 -16 -101 -8 -548 -13 -551 -6
-1 1 -4 58 -8 128 -5 84 -12 132 -22 146 -31 45 -200 162 -258 178 -77 23
-124 51 -147 88 -17 29 -19 53 -19 252 0 212 1 222 24 265 46 89 119 144 210
160 39 7 99 4 109 -5z m1912 -183 c13 -31 43 -75 65 -97 22 -22 66 -52 97 -65
l58 -25 0 -72 c0 -40 -4 -73 -8 -73 -19 0 -119 33 -154 51 -20 10 -73 51 -117
90 l-81 72 0 88 0 89 58 0 57 0 25 -58z m712 52 c10 -9 -17 -96 -49 -159 -52
-102 -138 -174 -258 -215 -95 -33 -95 -33 -95 60 0 69 2 80 18 80 29 0 118 57
151 97 17 21 41 61 53 90 l22 53 76 0 c42 0 79 -3 82 -6z m-45 -554 c7 0 28
-14 47 -31 48 -42 56 -86 26 -150 -19 -40 -31 -51 -66 -65 -52 -20 -90 -9
-128 37 -75 89 -15 232 89 213 11 -2 25 -4 32 -4z m-5891 -19 c61 -37 76 -117
38 -193 -30 -59 -79 -71 -151 -38 -77 34 -107 126 -61 185 49 63 117 81 174
46z m4894 -70 c0 -5 23 -25 50 -45 42 -30 49 -39 41 -55 -17 -30 -134 -156
-150 -160 -8 -2 -21 6 -30 17 -9 10 -28 35 -43 54 l-28 35 56 59 c30 32 62 69
71 82 16 22 33 29 33 13z m-1953 -24 c15 -13 94 -67 174 -120 80 -53 152 -104
160 -113 10 -12 15 -57 18 -160 3 -139 2 -145 -22 -187 -32 -55 -112 -114
-236 -176 -104 -53 -115 -62 -125 -103 l-6 -26 -57 31 c-67 35 -111 67 -94 67
15 0 68 -27 103 -53 15 -11 31 -18 34 -14 12 11 -51 60 -157 124 -57 33 -120
74 -140 90 -20 15 -44 33 -53 38 -32 20 -49 224 -25 310 17 61 106 143 253
235 72 44 133 80 137 80 4 0 20 -10 36 -23z m2262 -169 c31 -29 165 -149 298
-267 134 -118 245 -222 249 -233 11 -35 -7 -76 -62 -136 -57 -64 -110 -102
-139 -102 -22 0 -91 57 -225 185 -58 55 -137 127 -175 160 -137 117 -225 197
-225 204 0 23 194 241 214 241 5 0 34 -24 65 -52z m-4294 -19 c56 -14 117 -67
145 -125 19 -38 22 -56 16 -106 -5 -52 -30 -107 -57 -128 -3 -3 -11 -15 -18
-27 -6 -13 -18 -23 -26 -23 -8 0 -15 -4 -15 -8 0 -13 -104 -14 -155 -1 -25 6
-45 15 -45 20 0 5 -16 9 -35 9 -29 0 -39 6 -60 38 -14 21 -31 64 -37 95 -10
48 -9 64 5 110 40 126 145 180 282 146z m-387 -499 c53 -52 117 -111 141 -130
l45 -36 -146 -150 c-136 -140 -147 -149 -151 -125 -3 15 -33 58 -66 96 -89
103 -145 184 -129 189 7 3 57 6 111 9 l97 4 1 -141 c1 -107 3 -133 10 -106 6
19 37 69 70 110 33 41 67 87 76 102 9 14 26 31 37 37 22 10 -63 13 -349 11
l-140 -1 30 33 c17 18 76 81 132 139 58 60 105 119 110 135 6 26 8 24 15 -26
8 -53 12 -59 106 -150z m4300 48 c17 -17 15 -47 -3 -54 -24 -10 -64 22 -58 46
6 22 42 27 61 8z m57 -290 c54 -90 117 -197 141 -238 24 -42 61 -97 83 -122
43 -49 51 -81 27 -114 -14 -18 -33 -19 -313 -25 -164 -4 -319 -10 -345 -14
-32 -5 -48 -4 -48 3 0 13 241 490 303 600 22 39 44 72 47 72 4 0 51 -73 105
-162z m-4300 92 c3 -6 -1 -7 -9 -4 -18 7 -21 14 -7 14 6 0 13 -4 16 -10z m459
-88 c-1 -2 -84 -87 -184 -188 l-183 -183 -36 41 -37 41 191 183 190 182 30
-36 c17 -20 29 -38 29 -40z m185 -116 l34 -35 -174 -176 c-96 -97 -178 -183
-182 -191 -7 -12 -15 -8 -42 23 -19 21 -34 43 -35 48 0 10 350 364 361 365 3
0 20 -15 38 -34z m4107 -22 c16 -24 16 -26 -3 -46 -26 -25 -67 -26 -93 -3 -24
22 -25 33 -3 57 25 28 79 24 99 -8z m-3917 -145 c17 -17 31 -33 31 -36 0 -5
-43 -51 -204 -216 -58 -60 -106 -113 -106 -118 0 -5 -4 -9 -10 -9 -5 0 -10 6
-10 14 0 8 -15 26 -32 42 l-33 27 165 163 c91 90 166 164 167 164 1 0 15 -14
32 -31z m193 -186 l27 -26 -61 -71 c-34 -39 -92 -101 -129 -137 l-67 -66 -27
35 -27 34 60 61 c33 34 88 92 122 130 35 37 65 67 68 67 3 0 18 -12 34 -27z
m-1796 -94 c10 -12 56 -46 102 -76 45 -30 82 -59 82 -64 0 -6 5 -7 10 -4 6 3
13 0 16 -8 2 -7 11 -14 18 -14 7 0 40 -17 74 -38 l62 -38 1 -111 c1 -61 4
-335 8 -609 5 -411 4 -497 -7 -497 -8 0 -56 20 -108 45 -128 62 -219 149 -271
261 -46 101 -50 156 -42 596 8 366 18 578 29 578 4 0 15 -10 26 -21z m4421
-15 c112 -65 133 -218 45 -316 -92 -102 -234 -102 -323 0 -78 88 -76 192 5
280 65 72 184 88 273 36z m1793 -174 c14 -181 20 -703 10 -840 -9 -119 -35
-175 -118 -251 -54 -49 -265 -179 -291 -179 -8 0 -11 109 -11 368 0 451 10
862 22 862 4 0 8 -7 8 -17 0 -15 2 -15 18 0 9 8 31 19 47 23 17 4 32 10 35 14
3 3 32 20 65 37 129 67 148 79 158 100 5 12 14 20 18 17 5 -3 9 14 10 38 1 41
1 41 9 13 5 -16 14 -100 20 -185z m-4210 155 c15 -18 17 -16 -99 -143 -135
-149 -206 -198 -180 -123 14 40 235 281 258 281 5 0 14 -7 21 -15z m62 -314
c-78 -76 -142 -132 -142 -125 0 7 -15 25 -32 39 -25 20 -29 28 -18 32 24 10
161 147 210 210 l44 59 40 -39 41 -39 -143 -137z m340 65 l27 -33 -146 -157
c-80 -87 -149 -154 -152 -149 -3 4 -18 22 -34 39 l-27 30 147 152 c81 84 149
152 152 152 4 0 18 -15 33 -34z m1538 -45 c62 -37 110 -117 110 -184 0 -59
-17 -93 -70 -141 -53 -48 -102 -68 -163 -68 -59 0 -116 35 -162 101 -27 38
-30 51 -30 116 0 81 11 105 77 158 77 62 155 68 238 18z m-3359 -64 l44 -38 0
-572 c1 -315 3 -579 5 -587 8 -24 -38 -13 -92 22 l-48 30 0 452 c0 249 3 521
7 604 7 170 -1 162 84 89z m2672 24 c81 -32 177 -123 219 -208 87 -178 19
-424 -149 -539 -77 -53 -145 -68 -270 -62 -73 4 -103 11 -146 32 -83 40 -157
118 -203 211 -38 78 -39 82 -39 190 0 98 3 116 26 166 47 99 152 192 254 226
64 20 236 12 308 -16z m2402 -1488 c-6 -39 -9 -42 -60 -63 -50 -20 -83 -45
-84 -62 -1 -5 -4 -9 -8 -10 -16 -6 -23 335 -21 929 2 336 6 614 10 618 3 4 22
1 42 -6 31 -11 40 -10 73 7 24 13 40 29 43 44 7 36 12 -1406 5 -1457z m-3094
1390 c16 -10 29 -23 29 -29 0 -7 -59 -68 -132 -137 l-132 -124 -24 35 -24 36
120 118 c66 65 123 118 127 118 4 0 20 -8 36 -17z m-1754 -63 l53 -41 0 -599
c0 -330 -3 -600 -6 -600 -4 0 -33 15 -65 32 l-59 33 0 471 c0 449 7 744 18
744 3 0 29 -18 59 -40z m4425 -106 c-21 -14 -31 -44 -14 -44 28 1 100 24 113
36 15 14 17 1 24 -158 7 -179 -2 -1230 -11 -1260 -3 -11 -15 -18 -28 -18 -29
0 -75 -35 -86 -66 -5 -13 -16 -24 -24 -24 -11 0 -15 107 -21 683 -9 809 -8
822 25 848 14 10 29 19 35 19 5 0 -1 -7 -13 -16z m-4242 -23 c0 -23 8 -34 35
-51 20 -12 42 -19 50 -16 13 5 15 -29 17 -247 4 -613 2 -947 -5 -947 -4 0 -35
14 -67 31 l-60 31 0 427 c0 475 9 801 22 801 4 0 8 -13 8 -29z m239 -151 c-17
-11 -1 -53 17 -46 9 3 12 1 9 -4 -3 -6 0 -10 9 -10 8 0 22 -3 32 -7 13 -5 16
-3 11 10 -3 9 -3 17 2 17 5 0 12 -82 16 -182 9 -246 -2 -1429 -14 -1441 -13
-13 -56 6 -98 41 l-31 27 8 335 c5 184 9 526 10 760 0 463 4 537 27 518 10 -8
11 -13 2 -18z m3645 -43 c-2 -7 1 -20 8 -29 12 -15 20 -15 88 -3 41 7 77 11
79 9 6 -6 1 -1142 -5 -1246 l-7 -97 -36 -5 c-20 -4 -48 -4 -62 -1 -21 4 -28 0
-32 -15 -7 -26 6 -33 46 -25 l32 6 -27 -16 c-29 -16 -78 -17 -84 0 -7 20 -9
1435 -2 1435 4 0 5 -6 2 -13z m-354 -33 c-16 -18 -84 -59 -125 -74 l-30 -11
37 36 c36 35 89 64 117 65 11 0 11 -3 1 -16z m-3025 -156 c36 -18 48 -20 54
-10 15 25 21 -203 21 -799 l0 -598 -56 -25 c-31 -14 -63 -26 -70 -26 -12 0
-14 112 -14 703 0 621 3 777 16 777 2 0 24 -10 49 -22z m490 -26 c-6 -6 -65
28 -65 38 0 6 15 0 34 -12 19 -13 33 -24 31 -26z m2276 20 c-13 -9 -43 -28
-65 -41 -39 -23 -40 -23 -22 -3 11 12 24 22 30 22 6 0 22 9 36 20 14 11 30 19
35 19 6 0 -1 -8 -14 -17z m-2201 -74 c0 -11 -49 23 -50 35 0 4 11 0 25 -9 14
-9 25 -20 25 -26z m2670 -709 l0 -719 -67 -50 -68 -49 -3 672 c-3 654 1 842
18 832 5 -3 10 -1 12 3 4 11 90 40 101 35 4 -3 7 -328 7 -724z m-2615 673 c-3
-3 -11 0 -18 7 -9 10 -8 11 6 5 10 -3 15 -9 12 -12z m-380 -40 c72 -50 70 -37
67 -512 -2 -326 -5 -426 -15 -431 -6 -4 -36 -10 -64 -14 l-53 -7 0 444 c0 418
5 548 19 548 3 -1 24 -13 46 -28z m510 -32 c38 -27 65 -50 60 -50 -11 0 -86
48 -95 60 -3 4 -18 14 -35 23 -16 9 -23 16 -15 17 9 0 47 -22 85 -50z m1770
24 c-47 -39 -185 -116 -198 -110 -7 2 -4 5 6 5 9 1 17 5 17 10 0 5 17 16 39
24 21 9 46 23 54 32 16 16 97 65 107 65 3 -1 -8 -12 -25 -26z m365 -74 c10 0
22 5 25 10 3 6 19 10 35 10 l28 0 7 -82 c3 -46 5 -380 3 -743 l-3 -660 -54
-18 c-41 -13 -57 -15 -67 -6 -12 10 -14 129 -14 729 0 640 4 813 18 772 2 -6
12 -12 22 -12z m-2402 -67 c7 -7 19 -13 27 -13 21 0 28 -121 29 -485 l1 -330
-50 0 c-96 1 -88 -39 -82 418 3 221 8 412 12 424 6 19 10 20 28 10 12 -7 27
-18 35 -24z m1809 -3 c-14 -11 -30 -20 -36 -20 -6 0 -11 -4 -11 -9 0 -5 -7
-11 -15 -15 -23 -8 -18 1 16 34 18 16 41 30 52 30 18 0 17 -2 -6 -20z m395
-82 c24 -2 26 -7 32 -68 8 -86 8 -704 0 -764 l-7 -46 -48 0 c-36 0 -51 4 -57
18 -10 18 -15 740 -6 833 l6 57 27 -14 c16 -8 39 -15 53 -16z m-572 -28 c-14
-11 -38 -24 -55 -30 -29 -9 -29 -9 -10 6 19 15 74 43 85 43 3 0 -6 -8 -20 -19z
m-1170 -260 c21 -11 51 -36 67 -57 23 -30 28 -46 28 -92 -1 -101 -56 -176
-149 -202 -126 -35 -249 131 -190 257 19 40 86 101 118 107 49 10 89 6 126
-13z m1441 -19 c45 -28 79 -79 79 -119 0 -22 -80 -126 -110 -142 -37 -20 -102
-2 -169 47 l-24 18 14 -25 c7 -14 14 -29 14 -35 1 -5 7 -9 14 -7 7 1 10 -1 7
-6 -7 -12 38 -32 69 -32 14 0 25 -4 25 -10 0 -35 -110 17 -149 70 -70 97 -41
207 69 254 56 24 110 20 161 -13z m-686 -182 c198 -36 365 -206 395 -401 18
-118 -12 -262 -77 -370 -133 -221 -462 -305 -682 -175 -167 99 -281 293 -281
480 0 221 173 420 405 467 60 12 174 11 240 -1z m2813 -200 c2 -72 0 -88 -14
-93 -26 -10 -32 1 -39 79 -9 88 -3 108 27 103 22 -3 23 -8 26 -89z m-193 -107
c54 -43 105 -103 105 -123 0 -15 -76 5 -108 29 -40 31 -92 100 -92 124 0 31
33 20 95 -30z m-3551 -63 c37 -43 35 -91 -4 -130 -23 -24 -33 -28 -48 -20 -26
14 -72 62 -72 75 1 19 69 106 84 106 8 0 26 -14 40 -31z m1710 -39 c40 -45 39
-61 -10 -99 -37 -29 -57 -26 -93 14 -23 27 -29 40 -22 53 16 30 60 72 74 72 8
0 31 -18 51 -40z m586 -1105 c7 -9 8 -15 2 -15 -5 0 -12 7 -16 15 -3 8 -4 15
-2 15 2 0 9 -7 16 -15z m1041 5 c136 -25 263 -129 334 -273 99 -201 46 -455
-129 -614 -127 -117 -386 -134 -551 -38 -109 64 -202 178 -237 287 -22 71 -24
206 -4 289 53 229 335 396 587 349z m-5833 -8 c9 -6 14 -59 19 -185 l6 -177
174 0 173 0 0 185 0 185 114 0 113 0 -3 -482 c-2 -265 -5 -482 -7 -484 -1 -1
-51 -3 -111 -5 l-108 -4 1 188 2 187 -174 0 -174 0 -6 -127 c-3 -71 -3 -154 0
-185 l6 -58 -117 0 -116 0 0 478 c0 263 3 482 7 485 9 10 185 8 201 -1z m1157
-2 c172 -28 334 -183 375 -359 18 -76 8 -221 -20 -293 -28 -75 -97 -166 -167
-222 -97 -77 -192 -96 -474 -96 l-196 0 -6 143 c-9 186 -9 822 0 830 10 11
421 8 488 -3z m852 -16 c10 -14 37 -50 61 -80 23 -30 85 -120 136 -199 l93
-144 87 122 c47 67 118 168 156 225 l71 102 101 0 101 0 -7 -31 c-3 -17 -6
-238 -6 -491 l0 -459 -117 3 -117 3 3 251 c2 173 -1 254 -8 258 -6 4 -11 2
-11 -4 0 -17 -143 -223 -209 -302 -49 -58 -57 -64 -63 -47 -4 11 -32 50 -61
87 -72 91 -109 147 -149 223 l-33 64 -5 -266 -5 -266 -109 2 -109 2 1 269 c0
148 1 364 1 481 l1 212 43 4 c118 10 135 8 154 -19z m1543 -95 l0 -121 -230 4
-230 3 0 -72 0 -73 209 0 209 0 4 -30 c3 -17 3 -66 0 -109 l-4 -78 -209 1
-209 1 0 -72 0 -73 246 0 247 0 -7 -61 c-3 -34 -6 -88 -6 -120 l0 -57 -172 -2
c-95 0 -254 2 -354 6 l-181 7 -1 336 c-1 465 5 619 27 624 9 3 161 5 339 6
l322 1 0 -121z m793 9 c3 -62 4 -114 3 -115 -1 -1 -66 -3 -145 -4 l-143 -1 3
-371 4 -372 -110 1 -110 0 -7 195 c-5 107 -5 275 -2 373 l6 179 -126 -7 -126
-8 0 121 0 121 374 0 373 0 6 -112z m259 10 c2 -57 2 -140 0 -185 l-3 -83 176
0 175 0 0 179 0 178 68 6 c37 4 88 7 113 7 l46 0 2 -482 c1 -264 4 -485 7
-490 3 -4 -51 -8 -119 -8 l-123 0 4 197 5 196 -69 -6 c-38 -4 -115 -7 -171 -7
l-103 0 -2 -185 -3 -185 -107 -3 -106 -2 -6 29 c-3 15 -6 232 -6 482 l0 453
33 4 c17 2 67 5 110 5 l77 2 2 -102z m1865 55 c22 -27 67 -86 100 -133 33 -47
99 -136 146 -199 47 -63 93 -128 102 -145 16 -31 16 -31 11 32 -3 34 -3 159 1
277 l6 215 104 0 103 0 1 -157 c1 -87 2 -305 3 -485 l1 -328 -86 0 -86 0 -40
53 c-192 255 -269 360 -296 404 -18 29 -35 53 -38 53 -3 0 -9 -114 -13 -252
-4 -139 -8 -253 -9 -254 -1 -1 -50 -5 -108 -9 l-106 -7 -6 168 c-4 92 -7 313
-7 491 l0 323 89 0 89 0 39 -47z m-1414 -1064 c53 -14 137 -86 168 -143 15
-27 30 -71 33 -97 6 -42 3 -55 -25 -105 -61 -108 -156 -175 -253 -179 -28 -1
-68 -10 -89 -19 -34 -14 -64 -15 -225 -8 -103 5 -207 7 -232 5 -191 -14 -223
-14 -231 -1 -10 16 -127 17 -212 1 -36 -6 -60 -7 -64 -1 -3 6 -65 9 -147 8
-77 -2 -197 -2 -266 -1 -69 1 -168 -5 -220 -12 -52 -8 -117 -13 -145 -11 -27
1 -159 4 -292 7 -133 3 -259 10 -280 16 -58 16 -442 10 -543 -8 -62 -10 -160
-8 -266 7 -96 13 -205 64 -250 116 -38 45 -45 40 -12 -7 27 -39 70 -79 121
-114 20 -14 37 -27 37 -29 0 -11 -61 23 -112 63 -78 62 -100 105 -106 210 -4
75 -2 87 25 145 37 77 81 122 147 147 50 19 91 20 1726 20 1140 1 1687 -2
1713 -10z m-3793 -231 c26 -42 25 -46 -10 -88 l-29 -35 -488 0 c-362 0 -495 3
-515 12 -25 11 -68 65 -68 86 0 4 11 19 25 32 l24 25 521 0 520 0 20 -32z
m5310 22 c35 -19 43 -46 24 -86 -32 -66 -14 -64 -605 -57 -498 6 -533 7 -551
25 -22 22 -23 59 -3 98 l16 30 550 0 c356 0 557 -4 569 -10z"/>
<path d="M2248 6258 c11 -14 52 -31 52 -22 0 2 -15 11 -32 20 -28 14 -31 15
-20 2z"/>
<path d="M7785 6109 c-71 -49 -170 -113 -220 -143 -49 -31 -105 -68 -124 -84
l-34 -28 27 -42 c14 -23 29 -42 32 -42 11 0 103 56 276 169 97 64 190 124 208
133 26 15 30 22 25 40 -14 46 -38 88 -49 87 -6 -1 -69 -41 -141 -90z"/>
<path d="M8149 6150 c-42 -27 -86 -62 -100 -76 -13 -15 12 0 56 32 44 33 92
67 105 76 14 9 23 17 20 17 -3 1 -40 -21 -81 -49z"/>
<path d="M2400 6167 c0 -4 20 -18 103 -71 15 -10 27 -16 27 -13 0 4 -20 18
-102 71 -16 10 -28 16 -28 13z"/>
<path d="M2660 5995 c27 -35 54 -56 105 -81 28 -13 73 -38 100 -55 30 -19 43
-24 33 -13 -9 11 -43 34 -75 53 -32 19 -85 52 -118 75 -33 22 -53 31 -45 21z"/>
<path d="M2960 5785 c23 -19 47 -35 52 -35 6 0 20 -10 32 -23 11 -12 28 -22
36 -22 8 1 31 -9 50 -20 30 -19 89 -41 78 -30 -24 24 -263 165 -280 165 -5 0
9 -16 32 -35z"/>
<path d="M7454 5693 c-21 -14 -58 -39 -81 -55 -24 -16 -43 -32 -43 -34 0 -7
39 15 102 58 31 21 61 38 67 38 5 0 13 5 16 10 12 19 -23 10 -61 -17z"/>
<path d="M7077 5639 c-59 -39 -62 -44 -35 -63 30 -21 42 -20 83 7 39 25 48 41
40 68 -9 27 -35 23 -88 -12z"/>
<path d="M3220 5646 c0 -2 8 -10 18 -17 15 -13 16 -12 3 4 -13 16 -21 21 -21
13z"/>
<path d="M6499 8660 c-168 -26 -340 -141 -423 -282 -36 -62 -76 -224 -76 -310
0 -255 174 -477 425 -543 78 -20 236 -20 306 1 139 40 285 161 352 290 53 102
70 187 64 309 -8 158 -44 241 -151 353 -128 134 -329 208 -497 182z m116 -144
c21 -14 25 -24 25 -66 0 -62 -17 -80 -78 -81 -79 0 -132 -27 -169 -84 -78
-122 -115 -144 -178 -105 -60 37 -59 105 1 184 103 135 306 213 399 152z
m-385 -492 c30 -8 79 -14 110 -14 33 0 64 -6 77 -15 38 -27 34 -119 -7 -152
-8 -7 -39 -24 -68 -39 -47 -25 -55 -26 -78 -14 -55 30 -124 158 -124 231 0 26
3 30 18 24 9 -3 42 -13 72 -21z"/>
<path d="M2675 8491 c-78 -19 -154 -80 -193 -155 -36 -71 -38 -180 -4 -246 99
-191 310 -237 465 -101 79 70 114 206 83 315 -39 135 -204 222 -351 187z m142
-151 c80 -36 103 -114 60 -200 -29 -57 -94 -94 -147 -85 -66 12 -110 43 -132
92 -26 60 -18 103 30 155 54 57 118 71 189 38z"/>
<path d="M4850 8130 c-12 -8 -15 -40 -15 -189 0 -99 3 -182 6 -185 3 -3 42 0
87 6 l81 12 3 170 c2 94 -1 177 -6 184 -10 14 -133 17 -156 2z"/>
<path d="M4362 7798 c-7 -7 -12 -25 -12 -40 0 -24 7 -31 40 -44 49 -20 56 -31
64 -114 24 -235 27 -250 51 -250 12 0 43 -3 67 -6 l45 -6 5 118 c3 85 9 128
21 151 9 17 19 56 23 86 l6 54 -30 -5 c-35 -5 -129 15 -152 32 -50 37 -105 47
-128 24z"/>
<path d="M4185 7571 c-23 -5 -35 -17 -53 -56 -13 -28 -29 -53 -35 -57 -6 -3
-38 -10 -71 -13 -67 -8 -96 -26 -96 -60 0 -33 36 -43 182 -50 154 -8 149 -14
137 135 -4 58 -8 106 -8 108 -1 3 -21 1 -56 -7z"/>
<path d="M3991 6822 c-10 -7 -11 -14 -2 -30 15 -27 32 -36 128 -67 43 -13 86
-30 96 -37 11 -9 22 -42 32 -98 8 -46 21 -90 29 -98 18 -19 116 -17 251 4 127
19 133 21 146 46 8 15 6 30 -10 67 -13 31 -21 75 -23 125 l-3 77 -82 -2 -83
-2 7 -88 c8 -116 5 -119 -102 -119 -97 0 -89 -11 -100 143 l-7 87 -76 -2 -77
-1 60 -7 c55 -7 54 -7 -20 -5 -44 2 -96 6 -115 9 -19 4 -41 3 -49 -2z"/>
<path d="M4980 6439 c-14 -6 -52 -7 -89 -3 l-64 7 5 -119 c3 -86 9 -128 21
-151 17 -32 19 -33 87 -33 l70 0 0 94 c0 51 3 121 6 155 7 64 5 66 -36 50z"/>
<path d="M5980 6772 c0 -32 -18 -81 -41 -113 -10 -14 -3 -27 47 -83 65 -73
130 -112 169 -102 l25 6 -27 53 c-23 44 -28 68 -33 160 l-5 109 -68 1 -67 2 0
-33z"/>
<path d="M6765 6670 c-16 -11 -25 -20 -20 -20 10 0 64 39 55 40 -3 0 -18 -9
-35 -20z"/>
<path d="M6490 6631 c0 -6 4 -13 10 -16 6 -3 7 1 4 9 -7 18 -14 21 -14 7z"/>
<path d="M5580 6388 c0 -36 3 -106 6 -156 l7 -92 66 0 c117 0 129 16 132 184
l2 101 -59 6 c-33 3 -80 10 -106 14 l-48 7 0 -64z"/>
<path d="M5233 7320 c-116 -58 -185 -162 -162 -244 23 -82 164 -196 242 -196
65 0 160 79 198 164 39 90 5 178 -98 252 -83 60 -104 62 -180 24z m93 -145
c37 -57 -20 -125 -81 -97 -34 16 -34 64 0 97 31 32 60 32 81 0z"/>
<path d="M3205 7241 c-35 -16 -64 -55 -71 -99 -6 -39 -4 -44 34 -82 31 -32 47
-40 75 -40 38 0 81 29 117 80 19 27 19 32 7 62 -29 67 -105 104 -162 79z"/>
<path d="M7125 6443 c-71 -150 -84 -181 -78 -187 8 -8 261 -8 301 0 l30 6 -35
31 c-19 17 -61 70 -93 117 -85 127 -82 126 -125 33z"/>
<path d="M2257 5764 c-4 -4 -7 -27 -7 -50 0 -52 20 -67 83 -62 l42 3 0 55 0
55 -55 3 c-31 2 -59 0 -63 -4z"/>
<path d="M2256 5430 c-15 -92 -9 -100 80 -100 l54 0 0 64 0 64 -64 4 -64 3 -6
-35z"/>
<path d="M2260 5071 l0 -59 58 -4 c31 -2 60 -3 65 -1 4 3 7 31 7 64 l0 59 -65
0 -65 0 0 -59z"/>
<path d="M6454 5972 c-53 -34 -77 -72 -71 -116 7 -48 56 -102 108 -118 32 -9
42 -8 71 9 64 37 96 120 68 173 -30 56 -124 84 -176 52z"/>
<path d="M8197 5784 c-9 -9 -9 -96 -1 -118 5 -12 20 -16 64 -16 77 0 92 15 88
84 l-3 51 -70 3 c-39 1 -74 0 -78 -4z"/>
<path d="M8190 5433 c0 -16 3 -45 6 -65 l7 -38 68 0 69 0 0 65 0 65 -75 0 -75
0 0 -27z"/>
<path d="M8190 5074 l0 -64 70 0 70 0 0 55 c0 30 0 58 0 63 0 4 -31 8 -70 9
l-70 2 0 -65z"/>
<path d="M5989 5650 c-36 -19 -69 -70 -69 -108 0 -30 42 -85 82 -107 35 -19
36 -19 78 0 50 23 93 76 93 115 0 37 -26 76 -66 100 -40 25 -72 25 -118 0z"/>
<path d="M5226 5508 c3 -4 -2 -8 -11 -8 -23 0 -106 -80 -121 -117 -56 -133 49
-278 201 -277 211 2 290 257 117 379 -39 27 -52 30 -117 31 -41 0 -72 -3 -69
-8z"/>
<path d="M5209 3894 c-68 -21 -140 -74 -174 -129 -26 -42 -30 -58 -30 -119 0
-59 5 -80 29 -124 68 -123 234 -181 357 -125 101 45 173 155 171 260 -2 119
-61 200 -170 233 -74 23 -119 24 -183 4z"/>
<path d="M7645 2381 c-45 -12 -107 -46 -132 -73 -56 -60 -78 -169 -49 -250 61
-171 296 -228 422 -103 98 98 100 260 4 355 -60 60 -168 91 -245 71z"/>
<path d="M2870 2148 l0 -260 123 4 c111 3 127 6 168 30 47 28 83 68 113 125
20 40 21 141 2 187 -38 92 -139 156 -256 163 -36 2 -84 5 -107 7 l-43 4 0
-260z"/>
<path d="M4905 1382 c-3 -3 -5 -56 -5 -118 0 -104 2 -115 24 -141 13 -16 45
-39 70 -51 52 -26 89 -24 131 10 45 35 55 68 55 181 0 102 -1 104 -25 115 -14
7 -30 12 -35 12 -6 0 -10 -47 -10 -110 0 -105 -1 -110 -24 -126 -23 -14 -28
-14 -59 1 l-35 16 -8 102 -9 101 -32 7 c-18 3 -35 4 -38 1z"/>
<path d="M6830 1295 l0 -98 -30 42 c-51 69 -125 141 -147 141 -17 0 -21 -8
-27 -52 -3 -29 -6 -104 -6 -165 l0 -113 43 0 43 0 -4 85 c-3 53 -1 85 6 85 11
0 94 -98 119 -141 20 -34 28 -38 71 -31 26 3 32 8 27 21 -4 9 -9 82 -12 164
-6 144 -6 147 -29 147 -12 0 -29 3 -38 6 -14 5 -16 -7 -16 -91z"/>
<path d="M4248 1373 l-98 -4 0 -159 0 -160 119 0 119 0 5 26 c10 57 1 64 -79
64 -67 0 -74 2 -74 20 0 16 8 19 63 22 62 3 62 3 62 33 l0 30 -62 -3 c-55 -3
-62 -2 -68 17 -11 35 3 41 86 41 l80 0 -3 38 c-3 42 6 40 -150 35z"/>
<path d="M4591 1363 c-48 -24 -91 -87 -91 -135 0 -107 107 -197 201 -169 35
11 89 60 89 82 0 5 -11 15 -26 21 -20 10 -30 9 -54 -5 -39 -24 -63 -21 -94 9
-36 36 -36 85 0 113 34 26 64 27 97 1 32 -26 39 -25 67 5 27 29 19 45 -41 76
-47 23 -103 24 -148 2z"/>
<path d="M5385 1367 c-44 -21 -83 -65 -97 -108 -24 -82 35 -175 126 -198 42
-10 51 -9 101 15 30 14 55 32 55 39 0 8 -14 22 -30 30 -26 14 -36 14 -66 3
-30 -10 -39 -10 -62 3 -53 29 -55 107 -4 133 24 13 32 13 53 1 13 -8 30 -17
37 -21 18 -9 62 23 62 45 0 25 -60 62 -108 67 -20 2 -50 -2 -67 -9z"/>
<path d="M5646 1358 c-12 -47 -7 -68 17 -69 64 -3 59 7 58 -122 l-2 -118 48 3
48 3 -4 117 c-3 114 -3 117 18 111 11 -3 32 -2 46 1 22 6 25 12 25 51 l0 45
-124 0 c-120 0 -124 -1 -130 -22z"/>
<path d="M5997 1304 c-4 -42 -7 -116 -7 -164 l0 -87 40 0 40 0 2 148 c0 82 1
155 2 162 1 7 -14 13 -35 15 l-36 3 -6 -77z"/>
<path d="M6284 1361 c-46 -21 -100 -81 -109 -122 -8 -37 35 -120 80 -155 73
-55 158 -38 223 45 26 35 32 52 32 91 0 41 -5 55 -32 85 -35 41 -96 75 -130
75 -13 0 -41 -9 -64 -19z m118 -88 c11 -10 18 -30 18 -54 0 -68 -85 -106 -130
-57 -48 52 -4 147 63 134 17 -3 39 -14 49 -23z"/>
<path d="M3756 1289 c-3 -46 -7 -119 -9 -162 l-2 -79 35 6 c19 3 61 6 92 6 53
0 62 3 99 38 69 61 85 122 50 191 -31 60 -62 74 -168 79 l-91 4 -6 -83z m171
-14 c12 -9 25 -32 29 -51 9 -49 -19 -77 -78 -78 l-43 -1 -3 73 -3 72 38 0 c21
0 48 -7 60 -15z"/>
<path d="M9501 8384 c-1 -13 -9 -24 -21 -27 -28 -7 -324 -13 -492 -9 -76 1
-138 1 -138 -2 0 -16 31 -121 37 -127 5 -4 132 -10 284 -13 305 -7 309 -7 309
53 0 15 7 48 16 74 9 26 13 52 11 59 -3 7 -6 3 -6 -8z"/>
<path d="M9095 7475 c-75 -27 -102 -83 -70 -145 33 -64 103 -79 166 -36 64 43
74 107 26 161 -28 32 -71 39 -122 20z"/>
<path d="M9342 7359 c-5 -89 -125 -199 -219 -199 -30 0 -60 7 -80 20 -18 11
-33 17 -33 15 0 -17 71 -45 111 -45 122 0 237 106 226 209 l-4 36 -1 -36z"/>
<path d="M8970 7236 c0 -2 8 -10 18 -17 15 -13 16 -12 3 4 -13 16 -21 21 -21
13z"/>
<path d="M9070 6950 c-1 -32 -10 -46 -35 -53 -17 -4 -16 -5 5 -6 33 -1 53 30
40 61 l-9 23 -1 -25z"/>
<path d="M9299 6940 c-2 -15 -13 -27 -29 -31 -20 -6 -21 -7 -5 -8 31 -1 47 14
43 40 l-4 24 -5 -25z"/>
<path d="M9078 6677 c-5 -10 -8 -27 -8 -37 0 -14 -9 -20 -32 -23 -32 -4 -32
-4 5 -5 42 -2 51 9 45 55 -2 23 -4 25 -10 10z"/>
<path d="M9318 6664 c-5 -4 -8 -15 -8 -25 0 -9 -6 -20 -12 -22 -8 -4 -9 -6 -2
-6 17 -1 36 26 32 44 -2 9 -6 13 -10 9z"/>
<path d="M9062 6340 c0 -14 2 -19 5 -12 2 6 2 18 0 25 -3 6 -5 1 -5 -13z"/>
<path d="M9061 6244 c0 -11 3 -14 6 -6 3 7 2 16 -1 19 -3 4 -6 -2 -5 -13z"/>
<path d="M9285 5939 c-4 -6 -5 -12 -2 -15 2 -3 7 2 10 11 7 17 1 20 -8 4z"/>
<path d="M2331 4183 c-16 -16 -50 -66 -74 -113 -92 -175 -68 -137 -299 -463
-74 -103 -108 -176 -108 -230 0 -17 13 -57 28 -87 21 -42 37 -60 68 -76 40
-20 62 -21 488 -27 481 -7 500 -6 526 43 7 14 11 50 8 90 -5 85 -44 166 -149
305 -88 117 -162 238 -188 305 -33 87 -136 212 -216 261 -40 25 -49 24 -84 -8z
m214 -374 c83 -123 165 -244 183 -268 36 -49 40 -71 15 -72 -186 -6 -733 -7
-737 -1 -4 7 176 286 291 452 21 30 47 69 58 87 10 18 24 32 30 30 5 -2 78
-104 160 -228z"/>
<path d="M498 3873 c6 -2 18 -2 25 0 6 3 1 5 -13 5 -14 0 -19 -2 -12 -5z"/>
<path d="M1203 3873 c9 -2 23 -2 30 0 6 3 -1 5 -18 5 -16 0 -22 -2 -12 -5z"/>
<path d="M8415 3809 c-28 -28 -80 -75 -116 -104 -36 -30 -73 -60 -81 -69 -53
-52 -239 -181 -280 -193 -27 -8 -48 -18 -48 -21 0 -17 41 -72 61 -82 12 -7 36
-9 56 -5 44 8 68 -7 112 -73 59 -86 120 -105 172 -53 22 23 29 39 29 69 0 25
7 49 19 63 l20 24 40 -22 c47 -27 83 -29 101 -8 11 13 11 23 0 55 -11 33 -10
46 4 87 38 108 39 119 22 206 -9 45 -16 95 -16 110 0 34 -16 67 -33 67 -7 0
-35 -23 -62 -51z m-49 -261 c43 -32 94 -81 94 -90 0 -15 -71 -8 -109 11 -38
20 -69 69 -56 90 10 17 40 13 71 -11z m-152 -104 c10 -25 7 -93 -4 -115 -6
-10 -20 -19 -32 -19 -19 0 -20 4 -15 58 4 32 9 66 13 75 8 21 30 22 38 1z"/>
<path d="M738 3653 c6 -2 18 -2 25 0 6 3 1 5 -13 5 -14 0 -19 -2 -12 -5z"/>
<path d="M983 3653 c9 -2 23 -2 30 0 6 3 -1 5 -18 5 -16 0 -22 -2 -12 -5z"/>
<path d="M1218 3653 c6 -2 18 -2 25 0 6 3 1 5 -13 5 -14 0 -19 -2 -12 -5z"/>
<path d="M782 3480 c0 -19 2 -27 5 -17 2 9 2 25 0 35 -3 9 -5 1 -5 -18z"/>
<path d="M1032 3480 c0 -14 2 -19 5 -12 2 6 2 18 0 25 -3 6 -5 1 -5 -13z"/>
<path d="M498 3433 c7 -3 16 -2 19 1 4 3 -2 6 -13 5 -11 0 -14 -3 -6 -6z"/>
<path d="M733 3433 c9 -2 23 -2 30 0 6 3 -1 5 -18 5 -16 0 -22 -2 -12 -5z"/>
<path d="M978 3433 c6 -2 18 -2 25 0 6 3 1 5 -13 5 -14 0 -19 -2 -12 -5z"/>
</g>
</svg>
